<svg xmlns="http://www.w3.org/2000/svg" width="100mm" height="100mm" viewBox="0 0 100 100">
   <path fill="#061" d="M37.098 94.707a7.012 7.012 0 01-4.424-4.603c-.238-.79-.248-1.256-.248-12.002v-11.18H21.664c-11.855 0-11.524.02-13.048-.809a8.107 8.107 0 01-1.29-.9c-.694-.625-1.638-2.063-2.002-3.047-.274-.742-.275-.777-.31-12.81-.039-13.403-.058-13.042.794-14.602.9-1.646 2.325-2.883 3.974-3.45.827-.284.881-.286 11.735-.329l10.903-.043.035-10.387.034-10.388.53-1.09c.664-1.367 1.587-2.433 2.674-3.088 1.72-1.036.89-.978 14.247-.978h11.887l.89.286c1.135.366 2.242 1.098 3.001 1.986.648.758 1.376 2.08 1.598 2.904.096.357.139 3.647.137 10.636l-.002 10.12 10.971.044c10.16.042 11.023.062 11.667.278 2.091.702 3.786 2.386 4.587 4.559l.282.762.035 11.952c.023 7.713-.01 12.211-.093 12.682-.308 1.74-1.74 3.845-3.23 4.745-1.575.951-.792.893-13.088.966l-11.065.065-.028 11.182c-.032 12.392.008 11.785-.88 13.314-.968 1.668-2.253 2.733-3.942 3.267-.775.245-1.23.254-12.772.25l-11.968-.002zm13.729-28.905c.376-.385.44-.81.44-2.884v-2.046l.792.294c1.475.547 3.735.996 5.37 1.066 1.374.058 1.556.041 1.63-.154.173-.463-1.026-1.266-3.298-2.206l-.502-.208.944-.42c2.801-1.247 6.501-3.49 7.937-4.81 1.107-1.019 1.029-1.618-.21-1.617-1.51 0-2.867.318-6.134 1.437-.826.282-1.519.497-1.539.476-.02-.02.276-.59.659-1.267 1.045-1.847 2.714-5.398 3.51-7.466.713-1.857 1.337-4.152 1.337-4.924 0-.543-.408-.987-.796-.864-1.275.402-3.842 3.184-6.568 7.118-.505.729-.94 1.304-.965 1.278-.026-.026-.096-1.025-.156-2.22-.306-6.087-1.36-11.96-2.447-13.641-.879-1.359-1.83-.238-2.648 3.12-.647 2.652-1.078 6.069-1.433 11.355l-.098 1.456-1.201-1.702c-2.573-3.644-4.944-6.238-6.076-6.647-.497-.18-.56-.176-.787.033-.505.466-.075 2.6 1.183 5.87.697 1.814 2.52 5.656 3.508 7.396.353.623.618 1.132.587 1.132-.031 0-.817-.26-1.746-.578-3.154-1.078-5.598-1.566-6.58-1.314-1.616.415 2.563 3.672 7.917 6.17.677.317 1.232.614 1.233.662.001.048-.211.157-.472.243-.838.275-2.94 1.435-3.079 1.7-.073.14-.1.345-.058.456.065.172.3.192 1.622.136 1.908-.082 4.352-.617 6.067-1.328.206-.086.222.068.222 2.192 0 2.253.004 2.289.31 2.602.375.383 1.197.44 1.525.103z"/>
</svg>
